<svg xmlns="http://www.w3.org/2000/svg" viewBox="-299 225 600 180" enable-background="new -299 225 600 180"><style type="text/css">.st0{fill:#B6BD00;} .st1{fill:#E4E833;} .st2{fill:#2E2A25;} .st3{fill:#FFFFFF;} .st4{fill:none;} .st5{fill:#FF4338;} .st6{fill:#00B0EA;} .st7{fill:#04BAEE;} .st8{fill:#5BC4F1;} .st9{fill:none;stroke:#B6C44B;stroke-width:0.237;stroke-miterlimit:10;} .st10{fill:#454545;}</style><path class="st0" d="M272.3 253.1c-5.8.5-12.8-2.1-20.5-2.1-2.7 0-5 .7-6.7 1.7.1 4.5 2.3 9.1 5 12.6 4.8 6.2 13.1 9 20.9 7.9 12.3-1.8 22.8-14.2 25.6-25.9.1-.2 0-.5-.1-.7-8.2 2.9-20.1 6.2-24.2 6.5z"/><path class="st1" d="M272.3 253.1c4.1-.4 16-3.6 24.1-6.6-.9-2.1-7.3-4-12.3-5.2-2.6-.6-4.9-1.1-5.7-1.3-9.9-2.5-24.9-5.2-31.5 5.4-1.4 2.3-2 4.8-1.9 7.2 1.8-.9 4-1.7 6.7-1.7 7.7.1 14.8 2.7 20.6 2.2zm-60.6-10.2c2.2.5 4.1 1.1 5.7 1.8.2-2.9-.4-5.8-2.2-8.5-7.2-10.9-22.8-7.6-33.2-4.7-.8.2-3.2.8-5.9 1.5-5.2 1.4-11.9 3.5-12.8 5.8 3.5 1.8 9.9 4.7 17 5.3 10.7 1.1 24.7-2.5 31.4-1.2z"/><path class="st0" d="M211.7 242.9c-6.7-1.4-20.7 2.2-31.3 1.2-7.1-.7-13.6-3.5-17-5.3-.1.3-.1.5-.1.8 3.3 12.2 14.7 24.9 27.6 26.5 8.1 1 16.8-2.2 21.6-8.9 2.6-3.5 4.6-8 4.8-12.4-1.5-.7-3.4-1.4-5.6-1.9z"/><path class="st2" d="M242.5 258.5c.9 3 2.5 6 4.8 8.9 4.5 5.9 12.1 9.5 20.2 9.5 1.3 0 2.6-.1 3.9-.3 14-2.1 25.5-16.1 28.5-28.5 1.4-5.7-6.6-8.1-15-10.1-1.6-.4-3.1-.7-4.2-.9-.7-.1-1.2-.2-1.4-.3-4.4-1.1-10.2-2.3-15.9-2.3-9 0-15.5 3.1-19.3 9.3-2 3.2-2.8 7-2.3 10.9-3.2 1.3-6.7 2.3-10.2 1.8 1.1-4.4 2.2-8.8 3.2-13.3.6-2.5-3.3-3.6-3.9-1.1l-1.9 8.1-8.1-4.3c.4-4.2-.5-8.1-2.7-11.5-4-6.1-10.5-9.1-19.3-9.1-6.3 0-12.8 1.6-17.7 2.9-.3.1-.7.2-1.2.3l-.2.1c-1.1.3-2.7.7-4.5 1.1-11.1 3-13.7 5.2-14.8 7.2-.7 1.2-.8 2.4-.5 3.7 3.5 12.9 15.9 27.2 30.6 29 1.1.1 2.2.2 3.3.2 8.8 0 16.8-3.9 21.5-10.5 2.2-3.1 3.8-6.2 4.7-9.3 2.7 1.4 5.6 2.9 8 4.1-1.6 6.7-3.1 13.3-3.8 20.2-.3-.1-.6-.2-.8-.3l-.3-.1c-2.6-1.3-5.5-2.1-8.3-2.1-4.3 0-8.5 1.6-11.8 4.4-6 4.8-11.2 10.5-15.4 16.8h-2.4c-7 .1-15.3.1-21.9 2.4-1.5.5-5.6 1.7-5.6 3.9v7.8c0 2.2 1.1 4 3.5 4 4.1 0 3.8 4.3 4.3 7.3.9 5.7 4.3 10.4 8.8 13.7-.2 2.5-.3 5-.3 7.5 0 3.2.2 6.3.5 9.5.2 2.4.5 4.7 1 7 3.4 15.9 14.2 28.9 28.3 35.7-9.2 1.3-15.1 3.4-15.1 5.7 0 3.9 16.7 7.1 37.4 7.1 20.6 0 37.4-3.2 37.4-7.1 0-2.3-5.8-4.4-14.7-5.7 14.8-7.1 25.8-21.1 28.6-38.4l.2-1.4c.6-4.1.9-8.3.9-12.4 0-3.4-.2-6.8-.6-10.2 2.9-3 5-6.7 5.7-11.1.5-3 .2-7.3 4.3-7.3 2.4 0 3.5-1.9 3.5-4v-7.8c0-2.2-4.1-3.4-5.6-3.9-6.4-2.1-14.2-2.3-21-2.3-4.5-6.8-10.1-12.8-16.7-17.8l-.7-.5c-2.9-2-6.4-3-9.9-3-2.9 0-5.8.7-8.3 2.1l-.3.2-.6.3c.4-4.7 1.3-9.3 2.4-13.9 3.9.6 7.9-.3 11.7-1.9zm28.1 12.8c-1 .2-2.1.2-3.1.2-6.4 0-12.4-2.7-15.9-7.3-1.2-1.6-4-5.7-4.5-10.3 2.6-2.8 8.3-2 13.4-1.1 2.8 5.8 9.4 12.8 15.1 17.1-1.7.6-3.4 1.1-5 1.4zm5.8-1.8c-5.6-4.1-12.1-10.9-15-16.6 2.3.4 4.3.8 5.8.9 3.3.1 6.5-.2 9.7-.7 1.3.8 2.5 1.8 3.9 2.9 2.1 1.7 4.3 3.5 6.9 4.7-3.4 3.9-7.4 6.9-11.3 8.8zm11.7-9.5c-2.5-1.1-4.7-2.9-6.9-4.7-1.1-.9-2.1-1.7-3.2-2.5 5.5-1 10.9-2.7 16.1-4.5-1.2 4.6-3.4 8.5-6 11.7zm-10.2-17.9c.3.1.9.2 1.6.4 1.1.2 2.5.5 4.1.9 5.9 1.4 8.6 2.5 9.9 3.2-7.3 2.5-14.7 4.5-22.3 5 .3-3.5 1.2-6.8 2.8-10.5 1.4.3 2.7.6 3.9 1zm-14.6-2.2c3.4 0 6.8.5 10 1.1-1.6 3.7-2.6 7.1-2.8 10.7-3.8.2-7.6 0-11.5-.7-.7-.1-1.5-.3-2.4-.4.6-1.6 1.1-3.5 1.5-5.2.4-1.9.9-3.7 1.5-5.2 1.2-.2 2.4-.3 3.7-.3zm-14.7 6.7c2.1-3.5 5.5-5.6 10.1-6.4-.6 1.4-1 3.1-1.4 4.9-.4 1.8-.9 3.7-1.5 5.3-3.1-.5-6.4-.7-8.8.8.2-1.5.7-3.1 1.6-4.6zm-35-9.2c1.1 1.6 1.6 3.3 1.8 5-2.6-1.6-6.1-1.3-9.4-.7-.7-1.7-1.2-3.6-1.8-5.5-.5-1.9-1-3.6-1.6-5.2 5 .7 8.6 2.8 11 6.4zm-14.8-6.7c1 0 2 .1 2.9.1.7 1.6 1.2 3.5 1.8 5.5.5 1.9 1 3.8 1.7 5.5-.8.2-1.7.4-2.4.5-4 .9-7.9 1.2-11.8 1.1-.4-3.8-1.7-7.4-3.6-11.3 3.6-.7 7.6-1.4 11.4-1.4zm-22.2 4.3c1.7-.5 3.2-.8 4.3-1.1.7-.2 1.3-.3 1.6-.4 1.2-.3 2.6-.7 4-1 1.9 3.8 3.1 7.4 3.5 11.1-8.1-.3-16.1-2.3-23.9-4.7 1.3-1 4.2-2.3 10.5-3.9zm-11 5.7c5.7 1.8 11.5 3.3 17.4 4.2-1.2.9-2.3 1.8-3.5 2.9-2.2 1.9-4.5 3.9-7.2 5.1-2.8-3.5-5.2-7.7-6.7-12.2zm7.3 12.8c2.7-1.3 4.9-3.2 7.1-5.1 1.4-1.2 2.8-2.4 4.2-3.3 2.8.4 5.6.6 8.5.6 2.4 0 4.8-.3 7.1-.6-3 6.1-9.3 13.1-15 17.5-4.1-2.1-8.3-5.1-11.9-9.1zm38 2.5c-3.7 5.1-10.3 8.2-17.2 8.2-.9 0-1.8-.1-2.7-.2-1.7-.2-3.5-.7-5.3-1.4 5.8-4.6 12.3-11.8 15.1-18 1.1-.2 2.3-.4 3.4-.7 3.5-.8 8.5-2 11.1 1-.3 5.1-3.1 9.5-4.4 11.1z"/><path class="st3" d="M199.7 319.5c-.2.1-.5.1-.8.1-1.2 0-2.2-1-2.2-2.2v-.4c.1-1.1 1-1.9 2.1-1.9 1.2 0 2.2 1 2.2 2.2.1 1.1-.5 1.9-1.3 2.2zM200.7 298.5c-7.4-.4-28.1-2.1-30 8.2-1.9 10.6 2 20.4 12.8 24.3 9.4 3.4 23.4 1.7 29-7.5 2-3.4.5-.8 0 0 6.7-11 1.1-24.2-11.8-25zm-7.2 27c-6.2 0-11.2-5-11.2-11.2s5-11.2 11.2-11.2 11.2 5 11.2 11.2-5 11.2-11.2 11.2zm84.6-18.7c-1.9-10.4-22.5-8.7-30-8.2-12.9.8-18.5 13.9-11.9 25-.4-.7-2-3.4 0 0 5.6 9.2 19.6 10.9 29 7.5 10.9-4 14.8-13.8 12.9-24.3zm-23 18.7c-6.2 0-11.2-5-11.2-11.2s5-11.2 11.2-11.2 11.2 5 11.2 11.2-5 11.2-11.2 11.2z"/><path class="st4" d="M219.6 340.2c.4 1.9 5.7 2.1 7.3 2.6.6.2 1.6.4 2.5.5 1.6.1 3.1-.2 3-2.1-.1-4.2-13.8-5.2-12.8-1zm10 5.6c-2.2-.4-4.6-1.1-6.9-.9-.2 0-.2.2 0 .3 2.1.8 4.7 1.6 6.9 1.1.2 0 .2-.3 0-.5z"/><path class="st5" d="M229.2 317.2c-1-4.2-2.9-6.2-4.8-6.1-1.9-.1-3.8 1.9-4.8 6.1-4 16.3-20.5 23.1-36.1 19.3-1-.2-1.9-.5-2.9-.9-.1 1.4-.1 2.7-.1 4.1 0 3 .2 6 .5 8.9.2 2.1.5 4.2.9 6.2 4.4 20.4 22.5 35.6 44.2 35.6 22.5 0 41.1-16.4 44.6-37.9l.2-1.3c.5-3.8.8-7.6.8-11.5 0-1.9-.1-3.7-.2-5.5-1.9 1-4 1.8-6.1 2.3-15.6 3.7-32.2-2.9-36.2-19.3zm.4 29.3c-2.2.5-4.8-.3-6.9-1.1-.2-.1-.1-.3 0-.3 2.2-.2 4.7.5 6.9.9.2 0 .2.3 0 .5zm-.2-3.3c-.9-.1-1.9-.3-2.5-.5-1.7-.4-6.9-.6-7.3-2.6-.9-4.2 12.8-3.2 12.9 1 0 1.8-1.5 2.2-3.1 2.1zm-5-43c3-.1 5.7-1.9 9.4-3.7 6.5-3.1 14.8-3.6 22.5-3.5-3.6-4.7-7.8-8.9-12.4-12.4-1.8-1.3-4.1-2.1-6.5-2.1-1.9 0-3.7.5-5.3 1.3h-.1c-1.7 1-3.8 1.4-5.9 1.4-2.2 0-4.2-.5-6-1.4h-.1c-1.6-.8-3.4-1.3-5.3-1.3-2.9 0-5.5 1.1-7.5 2.9-4.2 3.4-8.1 7.3-11.4 11.7 6.7.1 13.7.8 19.2 3.5 3.7 1.6 6.4 3.4 9.4 3.6zm-485.9 89.8l-16-25.1h-12.7v25.1h-7.9v-63h25.4c11.5 0 19.9 7.4 19.9 19 0 11.4-7.9 17.6-16.5 18.4l17 25.7h-9.2v-.1zm.5-44c0-7.2-5.2-12-12.7-12h-16.6v24h16.6c7.5 0 12.7-5 12.7-12zm18.2 44v-63h41.4v7h-33.5v20.3h32.8v7h-32.8v21.7h33.5v7h-41.4zm52.9 0v-63h21.6c19.7 0 32.4 13.7 32.4 31.6 0 18-12.7 31.5-32.4 31.5h-21.6zm45.8-31.5c0-13.6-8.6-24.6-24.2-24.6h-13.7v49.1h13.7c15.3 0 24.2-11 24.2-24.5z"/><path class="st6" d="M192.1 318.3c-.7-.2-1.4-.7-1.9-1.2l-3.4 3c1 1.2 2.4 2 3.9 2.5l1.4-4.3z"/><path class="st7" d="M194.6 318.5c-.4.1-.7.1-1.1.1-.5 0-.9-.1-1.4-.2l-1.4 4.3c.9.3 1.8.5 2.8.5.8 0 1.6-.1 2.3-.3l-1.2-4.4z"/><path class="st8" d="M195.6 318c-.3.2-.6.4-1 .5l1.2 4.4c1.4-.4 2.6-1.2 3.6-2.2l-.6.1c-1.5 0-2.9-1.3-3.2-2.8z"/><path class="st4" d="M192.2 305.8c-1.5 0-3.4.9-4.9 2.4-1.2 1.2-2 2.6-2.3 3.9-.3 1.2-.1 2.2.6 2.9.6.6 1.3.7 1.9.7 1.5 0 3.4-.9 4.9-2.4 2.3-2.3 3.1-5.4 1.7-6.8-.5-.5-1.3-.7-1.9-.7z"/><path class="st6" d="M253.8 318.3c-.7-.2-1.4-.7-1.9-1.2l-3.4 3c1 1.2 2.4 2 3.9 2.5l1.4-4.3z"/><path class="st7" d="M256.2 318.5c-.4.1-.7.1-1.1.1-.5 0-.9-.1-1.3-.2l-1.4 4.3c.9.3 1.8.5 2.8.5.8 0 1.6-.1 2.3-.3l-1.3-4.4z"/><path class="st2" d="M260.5 320.8"/><path class="st4" d="M262.7 317.5c0-1.2-1-2.2-2.2-2.2-.6 0-1.1.2-1.5.6-.3.3-.5.8-.6 1.2l2.9 2.3c.8-.3 1.4-1.1 1.4-1.9z"/><path class="st8" d="M257.3 318c-.3.2-.7.4-1.1.5l1.3 4.4c1.4-.4 2.6-1.2 3.6-2.2l-.6.1c-1.6 0-3-1.3-3.2-2.8z"/><path class="st9" d="M259.6 268"/><path class="st4" d="M281.3 294.7h-.2.2zm-68.7 28.8c2-3.3.4-.7 0 0z"/><path class="st10" d="M281.1 294.7h.2-.2z"/><path class="st4" d="M124.6 369h26.8l-13.5-34-13.3 34zm-109.4 0h26.8l-13.5-34-13.3 34z"/><path class="st2" d="M-13.5 365.3c0 11.5-6.2 18.8-17.9 18.8-11.6 0-17.8-7.3-17.8-18.8v-38.3h-7.9v38.6c0 15.5 8.7 25.6 25.7 25.6 17.1 0 25.8-10 25.8-25.7v-38.5h-7.9v38.3zm-85-.6h21.8v12.8c-3.2 3.2-9.5 6.8-17 6.8-13.8 0-24.3-10.7-24.3-25.6 0-15.1 10.5-25.6 24.3-25.6 7.6 0 14.3 3.6 18.3 8.7l6.2-4c-5.5-6.9-13.3-11.8-24.5-11.8-18 0-32.5 13-32.5 32.6s14.5 32.7 32.5 32.7c10.3 0 18.9-4.4 24.8-11v-22.7h-29.5v7.1h-.1zm231.6-37.7l-25.5 63h9l5.6-14.1h31.4l5.6 14.1h9l-25.3-63h-9.8zm-8.5 42l13.3-34.1 13.4 34.1h-26.7zm-100.9-42l-25.4 63h9l5.6-14.1h31.4l5.6 14.1h9l-25.4-63h-9.8zm-8.5 42l13.3-34 13.4 34h-26.7zm89.3-42l-21.3 54.5-21.3-54.5h-8.9l25.4 63h9.8l25.3-63.1h-9z"/><path class="st3" d="M192.4 313.3c-1.5 1.5-3.3 2.4-4.9 2.4-.5 0-1.3-.1-1.9-.7-.6-.6-.8-1.7-.6-2.9.3-1.3 1.1-2.7 2.3-3.9 1.5-1.5 3.3-2.4 4.9-2.4.5 0 1.3.1 1.9.7 1.4 1.5.6 4.5-1.7 6.8zM259 316c.4-.4 1-.6 1.5-.6 1.2 0 2.2 1 2.2 2.2s-1 2.2-2.2 2.2-2.2-1-2.2-2.2c.1-.8.3-1.3.7-1.6zM249 308.2c1.5-1.5 3.3-2.4 4.9-2.4.5 0 1.3.1 1.9.7.6.6.8 1.7.6 2.9-.3 1.3-1.1 2.7-2.3 3.9-1.5 1.5-3.3 2.4-4.9 2.4-.5 0-1.3-.1-1.9-.7-.6-.6-.7-1.3-.7-1.9 0-1.6.9-3.3 2.4-4.9z"/></svg>
